<svg width="501" height="163" viewBox="0 0 501 163" fill="none" xmlns="http://www.w3.org/2000/svg">
<g clip-path="url(#clip0_1348_629)">
<path fill-rule="evenodd" clip-rule="evenodd" d="M315.862 36.8273C315.854 35.5306 316.1 34.2438 316.594 33.0438C317.086 31.8433 317.816 30.7533 318.738 29.8373C319.657 28.9211 320.751 28.1976 321.957 27.7084C323.162 27.2194 324.451 26.9749 325.754 26.9891H332.713V12.5133C332.494 10.9926 332.608 9.44315 333.04 7.96951C333.475 6.49626 334.224 5.13329 335.235 3.97302C336.24 2.81276 337.489 1.88276 338.889 1.24506C340.292 0.607355 341.813 0.277344 343.351 0.277344C344.892 0.277344 346.413 0.607355 347.816 1.24506C349.216 1.88276 350.465 2.81276 351.47 3.97302C352.481 5.13329 353.227 6.49626 353.665 7.96951C354.097 9.44315 354.211 10.9926 353.992 12.5133V26.9891H376.619C377.921 26.9749 379.211 27.2194 380.416 27.7084C381.619 28.1976 382.716 28.9211 383.635 29.8373C384.557 30.7533 385.286 31.8433 385.778 33.0438C386.273 34.2438 386.519 35.5306 386.511 36.8273C386.494 39.4371 385.448 41.9354 383.594 43.7784C381.746 45.6211 379.235 46.659 376.619 46.6663H353.992V81.516C353.992 98.5125 363.478 107.198 376.619 107.198C379.265 107.198 381.803 108.246 383.673 110.111C385.54 111.976 386.592 114.506 386.592 117.144C386.592 119.782 385.54 122.311 383.673 124.176C381.803 126.041 379.265 127.09 376.619 127.09C351.657 127.09 332.713 109.53 332.713 81.516V46.6663H325.754C323.138 46.659 320.627 45.6211 318.778 43.7784C316.924 41.9354 315.878 39.4371 315.862 36.8273ZM96.9447 75.9892C97.0258 66.249 99.8606 56.7303 105.125 48.5419C110.389 40.3536 117.864 33.8319 126.685 29.7354C135.502 25.6391 145.3 24.1363 154.937 25.4023C164.573 26.668 173.654 30.6506 181.124 36.8865C182.276 37.8892 183.213 39.1184 183.874 40.499C184.535 41.879 184.908 43.3803 184.965 44.9103C184.981 47.7927 183.87 50.5671 181.87 52.64L152.3 87.9179C151.441 89.0349 150.329 89.9319 149.06 90.5365C147.786 91.1406 146.391 91.4349 144.984 91.3952C143.69 91.4649 142.388 91.2665 141.172 90.8119C139.955 90.3579 138.844 89.6576 137.907 88.7546C136.97 87.8514 136.232 86.7649 135.729 85.5627C135.23 84.3608 134.983 83.0684 135.003 81.7663C134.942 80.6052 135.113 79.4433 135.506 78.3498C135.899 77.256 136.512 76.253 137.298 75.4009L160.57 48.0665C156.762 45.7263 152.365 44.52 147.896 44.5892C131.373 44.5892 118.298 58.4703 118.298 75.9892C118.298 93.5079 131.187 107.389 147.896 107.389C151.704 107.427 155.48 106.674 158.984 105.178C162.488 103.682 165.648 101.475 168.26 98.6968C168.665 98.3668 169.054 98.0403 169.436 97.7217C171.926 95.6395 173.998 93.909 177.494 93.909C178.853 93.8503 180.211 94.0719 181.485 94.5606C182.754 95.0487 183.914 95.7938 184.888 96.749C185.861 97.7041 186.628 98.8492 187.143 100.114C187.654 101.378 187.905 102.735 187.873 104.099C187.678 106.699 186.583 109.149 184.778 111.027C180.163 116.227 174.473 120.357 168.105 123.129C161.734 125.9 154.835 127.247 147.896 127.074C141.172 127.179 134.5 125.929 128.267 123.399C122.037 120.868 116.379 117.109 111.626 112.344C106.873 107.578 103.126 101.905 100.603 95.6598C98.0801 89.4146 96.8393 82.7254 96.9447 75.9892ZM55.739 46.3903H13.052C10.4446 46.376 7.94833 45.3317 6.10463 43.4838C4.26133 41.6354 3.21943 39.1333 3.20524 36.52C3.19064 35.22 3.4356 33.93 3.92552 32.726C4.41504 31.5219 5.13982 30.4282 6.0572 29.5087C6.9746 28.5892 8.06558 27.8627 9.26685 27.3719C10.4681 26.8809 11.755 26.6356 13.052 26.6498H76.9885C78.2858 26.6356 79.5725 26.8809 80.7736 27.3719C81.9747 27.8627 83.066 28.5892 83.9831 29.5087C84.9006 30.4282 85.6252 31.5219 86.1147 32.726C86.6047 33.93 86.8496 35.22 86.835 36.52C86.7358 39.1525 85.6309 41.6463 83.7496 43.4855L31.7796 105.665H76.9885C78.2858 105.651 79.5725 105.896 80.7736 106.387C81.9747 106.878 83.066 107.604 83.9831 108.524C84.9006 109.443 85.6252 110.537 86.1147 111.741C86.6047 112.945 86.8496 114.235 86.835 115.535C86.8212 118.148 85.779 120.651 83.9358 122.499C82.092 124.347 79.5958 125.392 76.9885 125.405H10.7983C8.1629 125.377 5.64636 124.302 3.80023 122.417C1.95449 120.531 0.930008 117.989 0.951503 115.347C1.02004 112.737 2.05262 110.245 3.84928 108.354L55.739 46.3903ZM228.766 153.221V115.371C237.623 123.151 249.028 127.409 260.818 127.335C288.632 127.335 309.689 104.748 309.689 76.1514C309.689 47.5555 288.632 24.9677 260.818 24.9677C248.991 24.8615 237.55 29.1982 228.766 37.1198V35.7787C228.401 33.2211 227.127 30.8806 225.177 29.1871C223.226 27.4941 220.728 26.5618 218.144 26.5618C215.561 26.5618 213.066 27.4941 211.116 29.1871C209.161 30.8806 207.887 33.2211 207.522 35.7787V153.221C207.887 155.779 209.161 158.122 211.116 159.812C213.066 161.507 215.561 162.439 218.144 162.439C220.728 162.439 223.226 161.507 225.177 159.812C227.127 158.122 228.401 155.779 228.766 153.221ZM258.51 44.6579C275.113 44.6579 288.259 58.1782 288.259 76.1514C288.259 94.1252 275.113 107.645 258.51 107.645C241.91 107.645 228.766 94.1252 228.766 76.1514V74.7836C229.358 57.6149 241.91 44.6579 258.51 44.6579ZM405.308 47.6573C399.697 56.0538 396.703 65.9252 396.703 76.0233C396.581 82.7611 397.821 89.4544 400.346 95.703C402.873 101.952 406.627 107.628 411.397 112.393C416.162 117.158 421.84 120.915 428.094 123.438C434.343 125.962 441.04 127.2 447.781 127.081C457.884 127.081 467.759 124.087 476.157 118.476C484.557 112.866 491.103 104.892 494.973 95.5622C498.838 86.2327 499.846 75.9671 497.876 66.0625C495.905 56.1584 491.043 47.0609 483.894 39.9203C476.754 32.78 467.654 27.9171 457.746 25.9468C447.838 23.9769 437.567 24.988 428.232 28.8522C418.9 32.7165 410.921 39.2611 405.308 47.6573ZM447.781 44.6076C464.724 44.6076 477.467 58.6833 477.467 76.0233C477.467 93.1765 464.754 107.44 447.781 107.44C430.808 107.44 418.092 93.3638 418.092 76.0233C418.092 58.6833 430.835 44.6076 447.781 44.6076Z" fill="url(#paint0_linear_1348_629)"/>
</g>
<defs>
<linearGradient id="paint0_linear_1348_629" x1="209.574" y1="29.0911" x2="234.031" y2="173.863" gradientUnits="userSpaceOnUse">
<stop stop-color="#FF3269"/>
<stop offset="1" stop-color="#FF794D"/>
</linearGradient>
<clipPath id="clip0_1348_629">
<rect width="500" height="162.162" fill="white" transform="translate(0.951172 0.277344)"/>
</clipPath>
</defs>
</svg>
